<svg width="31" height="35" viewBox="0 0 31 35" fill="none" xmlns="http://www.w3.org/2000/svg">
<path fill-rule="evenodd" clip-rule="evenodd" d="M10.5506 3.35862C15.2275 -1.11954 22.7912 -1.11954 27.4697 3.35862C32.1768 7.8638 32.1768 15.1923 27.4697 19.6991L14.8348 31.7934C11.5124 34.9728 6.14559 34.9728 2.82313 31.7934C2.0292 31.0458 1.39658 30.1437 0.96417 29.1426C0.531758 28.1415 0.308694 27.0625 0.308694 25.972C0.308694 24.8815 0.531758 23.8025 0.96417 22.8013C1.39658 21.8002 2.0292 20.8981 2.82313 20.1505L15.2768 8.23102C16.2368 7.32403 17.5074 6.81871 18.8281 6.81871C20.1488 6.81871 21.4195 7.32403 22.3795 8.23102C22.8527 8.67688 23.2298 9.2148 23.4875 9.81171C23.7452 10.4086 23.8782 11.0519 23.8782 11.7021C23.8782 12.3523 23.7452 12.9956 23.4875 13.5925C23.2298 14.1894 22.8527 14.7273 22.3795 15.1732L9.83685 27.1817C9.7237 27.2901 9.59032 27.3751 9.44432 27.4319C9.29832 27.4887 9.14257 27.5162 8.98595 27.5128C8.82932 27.5094 8.67491 27.4752 8.53151 27.4121C8.38811 27.349 8.25853 27.2583 8.15019 27.1452C8.04184 27.032 7.95684 26.8986 7.90004 26.7526C7.84324 26.6066 7.81575 26.4509 7.81915 26.2943C7.82255 26.1376 7.85676 25.9832 7.91983 25.8398C7.9829 25.6964 8.0736 25.5668 8.18675 25.4585L20.7294 13.4516C20.9695 13.228 21.1611 12.9573 21.292 12.6565C21.423 12.3556 21.4905 12.031 21.4905 11.7029C21.4905 11.3748 21.423 11.0502 21.292 10.7493C21.1611 10.4485 20.9695 10.1778 20.7294 9.95425C20.2133 9.47226 19.5335 9.20418 18.8273 9.20418C18.1212 9.20418 17.4414 9.47226 16.9253 9.95425L4.47164 21.8737C3.91043 22.3987 3.46301 23.0333 3.15712 23.7383C2.85124 24.4432 2.6934 25.2035 2.6934 25.972C2.6934 26.7404 2.85124 27.5007 3.15712 28.2057C3.46301 28.9106 3.91043 29.5452 4.47164 30.0702C6.87208 32.3673 10.7859 32.3673 13.1863 30.0702L25.8212 17.9758C29.5474 14.4086 29.5474 8.64752 25.8212 5.08025C22.0648 1.48596 15.9556 1.48596 12.1975 5.08025L2.01875 14.8251C1.79045 15.0441 1.48449 15.1634 1.16818 15.1569C0.851866 15.1503 0.551117 15.0184 0.332089 14.7901C0.113062 14.5618 -0.00630206 14.2558 0.000256678 13.9395C0.00681542 13.6232 0.138759 13.3225 0.367062 13.1034L10.5506 3.35862Z" fill="#132C6C"/>
</svg>
