<svg width="90" height="98" viewBox="0 0 90 98" fill="none" xmlns="http://www.w3.org/2000/svg">
<path d="M3.75006 17.4359L8.55006 12.25L75.0001 84.6067L70.2376 89.8334L48.4126 66.0684C45.7126 68.355 43.7626 70.1925 42.6376 73.9084C40.3876 81.34 37.5001 85.505 32.4001 88.4042C30.4876 89.3434 28.3876 89.8334 26.2501 89.8334C22.2718 89.8334 18.4565 88.1125 15.6435 85.0494C12.8304 81.9863 11.2501 77.8319 11.2501 73.5H18.7501C18.7501 75.666 19.5402 77.7432 20.9468 79.2747C22.3533 80.8063 24.2609 81.6667 26.2501 81.6667C27.3376 81.6667 28.3501 81.4217 29.1001 81.0542C31.7626 79.625 33.6376 77.4609 35.5126 71.3359C37.1626 65.8234 40.0876 62.8425 43.1251 60.27L18.9001 33.9325C18.7501 34.8717 18.7501 35.8109 18.7501 36.75H11.2501C11.2501 33.3609 11.7751 30.1759 12.7126 27.195L3.75006 17.4359ZM53.1751 48.755C55.1626 44.9167 56.2501 40.5475 56.2501 36.75C56.2501 25.3167 48.0001 16.3334 37.5001 16.3334C33.0376 16.3334 29.0251 17.9259 25.8376 20.6617L20.4751 14.8225C25.0126 10.6575 30.9376 8.16669 37.5001 8.16669C52.2376 8.16669 63.7501 20.7025 63.7501 36.75C63.7501 41.895 62.3251 47.5709 59.7376 52.675L58.0126 55.7375L52.6126 49.8167L53.1751 48.755ZM61.3501 10.78L66.6751 4.98169C74.1376 13.1075 78.7501 24.3367 78.7501 36.75C78.7501 48.3059 74.7376 58.8409 68.1751 66.8034L62.8876 61.005C68.2866 54.2935 71.259 45.6723 71.2501 36.75C71.2501 26.5417 67.5001 17.395 61.3501 10.78ZM46.8751 36.75C46.8751 38.7917 46.3501 40.5475 45.4876 42.0992L32.5876 28.0525C34.0126 27.1134 35.6251 26.5417 37.5001 26.5417C39.9865 26.5417 42.371 27.6172 44.1292 29.5316C45.8873 31.4461 46.8751 34.0426 46.8751 36.75Z" fill="#132C6C"/>
</svg>
