<svg width="83" height="90" viewBox="0 0 83 90" fill="none" xmlns="http://www.w3.org/2000/svg">
<path d="M79.9562 72.1913L71.1875 76.5613L63.0225 57.5H38.125C36.6 57.5 35.1375 56.8942 34.0591 55.8159C32.9808 54.7375 32.375 53.275 32.375 51.75V34.5C32.375 32.975 32.9808 31.5125 34.0591 30.4341C35.1375 29.3558 36.6 28.75 38.125 28.75C39.65 28.75 41.1125 29.3558 42.1909 30.4341C43.2692 31.5125 43.875 32.975 43.875 34.5V46H64V40.25H49.625V34.5C49.625 31.45 48.4134 28.5249 46.2567 26.3683C44.1001 24.2116 41.175 23 38.125 23C35.075 23 32.1499 24.2116 29.9933 26.3683C27.8366 28.5249 26.625 31.45 26.625 34.5V37.375C21.7535 37.3723 16.9801 38.7449 12.8541 41.3349C8.72814 43.9249 5.4171 47.627 3.30194 52.0154C1.18678 56.4038 0.35343 61.3001 0.897756 66.1412C1.44208 70.9822 3.34197 75.5712 6.37886 79.3803C9.41574 83.1894 13.4662 86.0638 18.0644 87.6729C22.6625 89.2819 27.6215 89.5602 32.3708 88.4757C37.1201 87.3913 41.4667 84.9881 44.9108 81.5427C48.3548 78.0974 50.7562 73.7497 51.8387 69H45.9162C44.8499 72.5766 42.8101 75.7862 40.0246 78.2701C37.2391 80.7541 33.8178 82.4146 30.143 83.066C26.4681 83.7175 22.6845 83.3342 19.215 81.9591C15.7454 80.584 12.7266 78.2711 10.4958 75.2791C8.26504 72.287 6.91023 68.7335 6.58277 65.0158C6.25532 61.298 6.96811 57.5625 8.6415 54.2265C10.3149 50.8905 12.883 48.0856 16.0587 46.1252C19.2345 44.1647 22.8929 43.126 26.625 43.125V51.75C26.625 54.8 27.8366 57.7251 29.9933 59.8817C32.1499 62.0384 35.075 63.25 38.125 63.25H59.2275L68.3125 84.4388L82.5437 77.3088L79.9562 72.1913ZM39.5625 20.125C37.5723 20.125 35.6268 19.5348 33.9721 18.4292C32.3173 17.3235 31.0276 15.7519 30.266 13.9133C29.5044 12.0746 29.3051 10.0513 29.6933 8.09941C30.0816 6.14747 31.04 4.35451 32.4472 2.94724C33.8545 1.53998 35.6475 0.581616 37.5994 0.193353C39.5513 -0.194911 41.5746 0.00435996 43.4132 0.765967C45.2519 1.52757 46.8235 2.81731 47.9292 4.47208C49.0348 6.12685 49.625 8.07233 49.625 10.0625C49.625 12.7312 48.5648 15.2907 46.6778 17.1778C44.7907 19.0648 42.2312 20.125 39.5625 20.125ZM39.5625 5.75C38.7096 5.75 37.8758 6.00293 37.1666 6.47679C36.4574 6.95066 35.9047 7.62418 35.5783 8.41218C35.2519 9.20019 35.1665 10.0673 35.3329 10.9038C35.4993 11.7404 35.91 12.5088 36.5131 13.1119C37.1162 13.715 37.8846 14.1257 38.7212 14.2921C39.5577 14.4585 40.4248 14.3731 41.2128 14.0467C42.0008 13.7203 42.6743 13.1676 43.1482 12.4584C43.6221 11.7492 43.875 10.9154 43.875 10.0625C43.875 8.91876 43.4206 7.82186 42.6119 7.01311C41.8031 6.20436 40.7062 5.75 39.5625 5.75Z" fill="#132C6C"/>
</svg>
