<svg width="32" height="32" viewBox="0 0 32 32" fill="none" xmlns="http://www.w3.org/2000/svg">
<path d="M18.3821 28.4353H13.2154C8.34454 28.4353 5.90846 28.4353 4.39591 26.9215C2.88337 25.4077 2.88208 22.9729 2.88208 18.102V15.5187C2.88208 10.6478 2.88208 8.21172 4.39591 6.69918C5.90975 5.18664 8.34454 5.18534 13.2154 5.18534H18.3821C23.253 5.18534 25.689 5.18534 27.2016 6.69918C28.7141 8.21301 28.7154 10.6478 28.7154 15.5187V18.102C28.7154 22.9729 28.7154 25.409 27.2016 26.9215C26.3581 27.7663 25.2279 28.1396 23.5487 28.3036M9.34041 5.18534V3.24784M22.2571 5.18534V3.24784M28.0696 11.6437H14.1842M2.88208 11.6437H7.88729" stroke="#132C6C" stroke-width="1.9375" stroke-linecap="round"/>
<path d="M23.5488 21.977C23.5488 22.3196 23.4127 22.6481 23.1705 22.8904C22.9283 23.1326 22.5997 23.2687 22.2572 23.2687C21.9146 23.2687 21.586 23.1326 21.3438 22.8904C21.1016 22.6481 20.9655 22.3196 20.9655 21.977C20.9655 21.6344 21.1016 21.3059 21.3438 21.0637C21.586 20.8214 21.9146 20.6853 22.2572 20.6853C22.5997 20.6853 22.9283 20.8214 23.1705 21.0637C23.4127 21.3059 23.5488 21.6344 23.5488 21.977ZM23.5488 16.8103C23.5488 17.1529 23.4127 17.4815 23.1705 17.7237C22.9283 17.9659 22.5997 18.102 22.2572 18.102C21.9146 18.102 21.586 17.9659 21.3438 17.7237C21.1016 17.4815 20.9655 17.1529 20.9655 16.8103C20.9655 16.4678 21.1016 16.1392 21.3438 15.897C21.586 15.6548 21.9146 15.5187 22.2572 15.5187C22.5997 15.5187 22.9283 15.6548 23.1705 15.897C23.4127 16.1392 23.5488 16.4678 23.5488 16.8103ZM17.0905 21.977C17.0905 22.3196 16.9544 22.6481 16.7122 22.8904C16.4699 23.1326 16.1414 23.2687 15.7988 23.2687C15.4563 23.2687 15.1277 23.1326 14.8855 22.8904C14.6432 22.6481 14.5072 22.3196 14.5072 21.977C14.5072 21.6344 14.6432 21.3059 14.8855 21.0637C15.1277 20.8214 15.4563 20.6853 15.7988 20.6853C16.1414 20.6853 16.4699 20.8214 16.7122 21.0637C16.9544 21.3059 17.0905 21.6344 17.0905 21.977ZM17.0905 16.8103C17.0905 17.1529 16.9544 17.4815 16.7122 17.7237C16.4699 17.9659 16.1414 18.102 15.7988 18.102C15.4563 18.102 15.1277 17.9659 14.8855 17.7237C14.6432 17.4815 14.5072 17.1529 14.5072 16.8103C14.5072 16.4678 14.6432 16.1392 14.8855 15.897C15.1277 15.6548 15.4563 15.5187 15.7988 15.5187C16.1414 15.5187 16.4699 15.6548 16.7122 15.897C16.9544 16.1392 17.0905 16.4678 17.0905 16.8103ZM10.6322 21.977C10.6322 22.3196 10.4961 22.6481 10.2538 22.8904C10.0116 23.1326 9.68307 23.2687 9.34049 23.2687C8.99792 23.2687 8.66938 23.1326 8.42715 22.8904C8.18491 22.6481 8.04883 22.3196 8.04883 21.977C8.04883 21.6344 8.18491 21.3059 8.42715 21.0637C8.66938 20.8214 8.99792 20.6853 9.34049 20.6853C9.68307 20.6853 10.0116 20.8214 10.2538 21.0637C10.4961 21.3059 10.6322 21.6344 10.6322 21.977ZM10.6322 16.8103C10.6322 17.1529 10.4961 17.4815 10.2538 17.7237C10.0116 17.9659 9.68307 18.102 9.34049 18.102C8.99792 18.102 8.66938 17.9659 8.42715 17.7237C8.18491 17.4815 8.04883 17.1529 8.04883 16.8103C8.04883 16.4678 8.18491 16.1392 8.42715 15.897C8.66938 15.6548 8.99792 15.5187 9.34049 15.5187C9.68307 15.5187 10.0116 15.6548 10.2538 15.897C10.4961 16.1392 10.6322 16.4678 10.6322 16.8103Z" fill="#132C6C"/>
</svg>
