<svg width="35" height="35" viewBox="0 0 35 35" fill="none" xmlns="http://www.w3.org/2000/svg">
<path d="M2 17.5C2 24.8066 2 28.46 4.2692 30.7292C6.5415 32.9999 10.1933 32.9999 17.5 32.9999C24.8067 32.9999 28.4601 32.9999 30.7293 30.7292C33 28.4615 33 24.8066 33 17.5V15.175M19.825 2.00006H17.5C10.1933 2.00006 6.53995 2.00006 4.2692 4.26925C2.76105 5.77894 2.2542 7.90088 2.08525 11.3" stroke="#132C6C" stroke-width="2.4853" stroke-linecap="round"/>
<path d="M24.7095 4.17472L25.7154 3.20471C26.5158 2.43313 27.6013 1.99973 28.7331 1.99987C29.8648 2.00001 30.9502 2.43367 31.7504 3.20546C32.5505 3.97725 33 5.02394 32.9998 6.11527C32.9997 7.2066 32.55 8.25318 31.7496 9.02477L30.7421 9.99478C30.7421 9.99478 28.6062 9.87371 26.7214 8.05476C24.835 6.2373 24.7095 4.17622 24.7095 4.17622L15.4637 13.0901C14.8375 13.694 14.5244 13.9959 14.2547 14.3292C13.9365 14.7228 13.6657 15.1452 13.4425 15.5966C13.255 15.9777 13.1155 16.3828 12.8349 17.1929L11.9375 19.786M11.9375 19.786L11.3578 21.463C11.2896 21.6586 11.2794 21.8686 11.3282 22.0695C11.3771 22.2704 11.4831 22.4542 11.6343 22.6001C11.7855 22.7461 11.976 22.8485 12.1842 22.8958C12.3925 22.9431 12.6103 22.9335 12.8132 22.868L14.5539 22.309M11.9375 19.786L14.5539 22.309M30.7436 9.99328L26.12 14.4502M21.4979 18.9087C20.8717 19.5125 20.5586 19.8144 20.2129 20.0745C19.8055 20.3807 19.3648 20.6433 18.8985 20.8577C18.5033 21.0385 18.0832 21.173 17.2431 21.4436L14.5539 22.309" stroke="#132C6C" stroke-width="2.4853" stroke-linecap="round"/>
</svg>
