<svg width="32" height="31" viewBox="0 0 32 31" fill="none" xmlns="http://www.w3.org/2000/svg">
<path d="M0.92741 1.68508L0.86386 1.63965C0.706721 1.94626 0.625003 2.30263 0.625003 2.72139V20.8692V20.87C0.624163 21.5081 0.813368 22 1.1697 22.3911C1.52359 22.7795 1.94434 22.9655 2.47383 22.9655H17.3412V22.5305H2.47229C2.0309 22.5305 1.63495 22.3651 1.33431 22.0344L0.92741 1.68508ZM0.92741 1.68508L0.90525 1.6851V21.9054V21.9055L1.22863 21.9055L0.92741 1.68508ZM13.786 11.2209L2.15645 2.85578L2.15615 2.56359L13.4225 10.6187L13.786 10.8786L14.1495 10.6186L25.932 2.19349L26.7067 1.63954C26.8649 1.94639 26.947 2.30278 26.947 2.72139V10.134H26.6652V3.17635V1.9569L25.6753 2.66897L13.786 11.2209ZM1.30836 1.0601C1.63155 0.765737 2.01025 0.624328 2.47283 0.625065H2.47383H25.0967C25.5575 0.625065 25.936 0.76629 26.26 1.0601H25.5685H2.00204H1.30836ZM30.1408 24.7565V18.6414H30.4226V24.7565C30.4226 26.1407 29.9872 27.2889 29.1238 28.2387C28.2624 29.1863 27.2467 29.6416 26.0402 29.6416C24.8336 29.6416 23.8164 29.1861 22.9551 28.2387C22.0918 27.2889 21.6563 26.1407 21.6563 24.7565V17.1739C21.6563 16.4155 21.8854 15.8163 22.3252 15.3334C22.7625 14.8532 23.2806 14.6243 23.9187 14.6243C24.5569 14.6243 25.075 14.8532 25.5123 15.3334C25.952 15.8163 26.1811 16.4155 26.1811 17.1739V24.1315H25.8994V17.1739C25.8994 16.6131 25.7195 16.1064 25.3447 15.6953C24.9672 15.28 24.4787 15.0593 23.9172 15.0593C23.3555 15.0593 22.8671 15.2802 22.4911 15.6971C22.1204 16.1081 21.9408 16.6126 21.9381 17.1708V17.1739V24.7565C21.9381 25.96 22.3303 27.0134 23.1189 27.8811C23.9088 28.7513 24.8933 29.2066 26.0402 29.2066C27.1863 29.2066 28.1703 28.7511 28.96 27.8811L28.4972 27.461L28.9594 27.8818C29.7486 27.0149 30.1408 25.9611 30.1408 24.7565Z" fill="white" stroke="#132C6C" stroke-width="1.25"/>
</svg>
