<svg width="23" height="28" viewBox="0 0 23 28" fill="none" xmlns="http://www.w3.org/2000/svg">
<path d="M11.3333 11.3333C14.1868 11.3333 16.5 9.02014 16.5 6.16667C16.5 3.3132 14.1868 1 11.3333 1C8.47982 1 6.16663 3.3132 6.16663 6.16667C6.16663 9.02014 8.47982 11.3333 11.3333 11.3333Z" stroke="#132C6C" stroke-width="1.9375"/>
<path d="M21.6641 21.6667C21.6658 21.4548 21.6667 21.2396 21.6667 21.0208C21.6667 17.8111 17.0399 15.2083 11.3333 15.2083C5.62675 15.2083 1 17.8111 1 21.0208C1 24.2306 1 26.8333 11.3333 26.8333C14.215 26.8333 16.2933 26.6306 17.7917 26.2689" stroke="#132C6C" stroke-width="1.9375" stroke-linecap="round"/>
</svg>
