<svg width="34" height="34" viewBox="0 0 34 34" fill="none" xmlns="http://www.w3.org/2000/svg">
<path d="M19.0409 1.696C18.5359 1.23591 17.8806 0.981323 17.2012 0.981323C16.5218 0.981323 15.8664 1.23591 15.3614 1.696L0.701172 15.0522V29.5274C0.701172 30.7087 1.16474 31.8415 1.9899 32.6768C2.81506 33.5121 3.93422 33.9813 5.10117 33.9813H29.3012C30.4681 33.9813 31.5873 33.5121 32.4124 32.6768C33.2376 31.8415 33.7012 30.7087 33.7012 29.5274V15.0522L19.0409 1.696ZM21.3262 31.1935H13.0762V24.198C13.0762 23.0906 13.5108 22.0285 14.2844 21.2455C15.0579 20.4624 16.1072 20.0225 17.2012 20.0225C18.2952 20.0225 19.3444 20.4624 20.118 21.2455C20.8916 22.0285 21.3262 23.0906 21.3262 24.198V31.1935ZM30.9512 29.5232C30.9512 29.9662 30.7773 30.391 30.4679 30.7043C30.1585 31.0175 29.7388 31.1935 29.3012 31.1935H24.0762V24.198C24.0762 22.3523 23.3518 20.5822 22.0625 19.2771C20.7732 17.972 19.0245 17.2388 17.2012 17.2388C15.3778 17.2388 13.6291 17.972 12.3398 19.2771C11.0505 20.5822 10.3262 22.3523 10.3262 24.198V31.1935H5.10117C4.66356 31.1935 4.24388 31.0175 3.93445 30.7043C3.62501 30.391 3.45117 29.9662 3.45117 29.5232V16.2909L17.2012 3.76429L30.9512 16.2909V29.5232Z" fill="white"/>
</svg>
