<svg width="35" height="35" viewBox="0 0 35 35" fill="none" xmlns="http://www.w3.org/2000/svg">
<path d="M8.00615 18.3882C7.1273 16.3375 6.6499 14.152 6.6499 12.0983C6.6499 6.52135 11.5076 2 17.4999 2C23.4922 2 28.3499 6.52135 28.3499 12.0983C28.3499 17.6318 24.8872 24.0875 19.4839 26.397C18.8563 26.663 18.1816 26.8001 17.4999 26.8001C16.8182 26.8001 16.1435 26.663 15.5159 26.397C13.7908 25.6592 12.2625 24.4983 10.9822 23.08" stroke="#132C6C" stroke-width="2.325" stroke-linecap="round"/>
<path d="M20.5999 12.85C20.5999 13.6722 20.2733 14.4607 19.6919 15.042C19.1106 15.6234 18.3221 15.95 17.4999 15.95C16.6777 15.95 15.8892 15.6234 15.3079 15.042C14.7265 14.4607 14.3999 13.6722 14.3999 12.85C14.3999 12.0278 14.7265 11.2393 15.3079 10.658C15.8892 10.0766 16.6777 9.75 17.4999 9.75C18.3221 9.75 19.1106 10.0766 19.6919 10.658C20.2733 11.2393 20.5999 12.0278 20.5999 12.85Z" stroke="#132C6C" stroke-width="2.325"/>
<path d="M31.388 22.925C32.4203 23.8581 33 24.9121 33 26.025C33 27.4587 32.039 28.7917 30.3898 29.9M3.612 22.925C2.5797 23.8581 2 24.9121 2 26.025C2 29.8767 8.93935 33 17.5 33C20.0621 33 22.4786 32.721 24.6083 32.225" stroke="#132C6C" stroke-width="2.325" stroke-linecap="round"/>
</svg>
