<svg width="29" height="36" viewBox="0 0 29 36" fill="none" xmlns="http://www.w3.org/2000/svg">
<path d="M2 34H26.9992" stroke="white" stroke-width="2.25002" stroke-linecap="round"/>
<path d="M24.4005 11.7779L25.5598 10.5939C26.0163 10.1265 26.3785 9.57162 26.6256 8.9609C26.8727 8.35018 27 7.6956 27 7.03453C27.0001 6.37346 26.873 5.71885 26.626 5.10807C26.3791 4.4973 26.017 3.94231 25.5606 3.47481C25.1042 3.00731 24.5623 2.63645 23.9659 2.3834C23.3695 2.13036 22.7303 2.00007 22.0847 2C21.4391 1.99993 20.7999 2.13006 20.2034 2.38297C19.607 2.63588 19.065 3.00662 18.6085 3.47401L17.4491 4.6612C17.4491 4.6612 17.5944 7.18276 19.7663 9.40673C21.9381 11.6307 24.4005 11.7795 24.4005 11.7795L13.7493 22.6865C13.0274 23.4257 12.668 23.7937 12.2696 24.1121C11.7998 24.4876 11.2952 24.8071 10.7556 25.0705C10.3009 25.2929 9.81658 25.4577 8.84942 25.7873L4.74643 27.1889M17.4491 4.6596L6.79793 15.5682C6.07607 16.3074 5.71515 16.6754 5.40578 17.0834C5.03931 17.5636 4.72546 18.0835 4.46988 18.6338C4.2527 19.0994 4.09176 19.5954 3.76834 20.5858L2.40119 24.7873M2.40119 24.7873L2.06839 25.8129C1.99038 26.052 1.97898 26.3087 2.03547 26.5541C2.09195 26.7995 2.2141 27.0239 2.38819 27.2022C2.56229 27.3805 2.78145 27.5056 3.02109 27.5634C3.26074 27.6212 3.51138 27.6096 3.7449 27.5297L4.74643 27.1889M2.40119 24.7873L4.74643 27.1889" stroke="white" stroke-width="2.25002"/>
</svg>
