<svg width="32" height="32" viewBox="0 0 32 32" fill="none" xmlns="http://www.w3.org/2000/svg">
<path d="M2.68233 7.45372C2.67387 7.29734 2.63469 7.14414 2.56703 7.0029C2.49937 6.86165 2.40456 6.73511 2.28799 6.6305C2.17143 6.5259 2.03541 6.44528 1.88769 6.39325C1.73997 6.34121 1.58344 6.31878 1.42705 6.32724C1.27067 6.33569 1.11747 6.37487 0.976226 6.44253C0.834978 6.51019 0.708439 6.60501 0.603835 6.72157C0.499231 6.83813 0.418611 6.97416 0.366576 7.12188C0.314541 7.2696 0.292112 7.42612 0.300568 7.58251L2.68233 7.45372ZM4.21823 1.35941C4.00941 1.59017 3.89909 1.89343 3.91081 2.20443C3.92253 2.51543 4.05538 2.80952 4.28097 3.02391C4.50657 3.2383 4.80705 3.356 5.11824 3.35188C5.42943 3.34775 5.72668 3.22213 5.94651 3.00184L4.21823 1.35941ZM13.6721 27.9435C13.8047 28.029 13.953 28.0873 14.1082 28.115C14.2635 28.1428 14.4228 28.1395 14.5768 28.1053C14.7308 28.071 14.8764 28.0066 15.0054 27.9157C15.1343 27.8248 15.2439 27.7092 15.3278 27.5756C15.4117 27.4421 15.4683 27.2932 15.4943 27.1376C15.5203 26.982 15.5151 26.8228 15.4791 26.6692C15.4432 26.5156 15.3771 26.3707 15.2847 26.2428C15.1923 26.1149 15.0754 26.0067 14.9409 25.9243L13.6721 27.9435ZM20.7459 28.3347C20.4361 28.2699 20.1134 28.3309 19.8486 28.5041C19.5838 28.6774 19.3987 28.9487 19.334 29.2584C19.2692 29.5682 19.3302 29.8909 19.5034 30.1557C19.6767 30.4205 19.948 30.6056 20.2577 30.6703L20.7459 28.3347ZM21.5917 21.1576L22.3151 20.3944L20.5853 18.752L19.8618 19.5152L21.5917 21.1576ZM24.6985 20.0732L27.7353 21.8222L28.9262 19.7552L25.8878 18.0063L24.6985 20.0732ZM28.322 25.4473L26.0627 27.8243L27.7926 29.4683L30.0503 27.0897L28.322 25.4473ZM10.0073 21.8174C3.84459 15.3288 2.81111 9.85456 2.68233 7.45372L0.300568 7.58251C0.459564 10.5239 1.70609 16.5403 8.27899 23.4599L10.0073 21.8174ZM12.1951 11.2649L12.6498 10.7847L10.9215 9.14226L10.4652 9.62243L12.1951 11.2649ZM13.0091 4.80644L11.0042 1.97154L9.05648 3.34845L11.0598 6.18335L13.0091 4.80644ZM11.3285 10.4428C11.0424 10.1671 10.7535 9.89411 10.462 9.62402L10.4588 9.6272L10.4541 9.63197L10.3746 9.72419C10.2189 9.93059 10.0956 10.1595 10.0089 10.4031C9.85304 10.8403 9.77037 11.4191 9.8753 12.1409C10.082 13.5592 11.0121 15.4655 13.44 18.0238L15.1699 16.3798C12.8994 13.99 12.3397 12.5193 12.2348 11.7943C12.1839 11.4445 12.2348 11.2617 12.2555 11.2028L12.2682 11.1726L12.2237 11.2315L12.1951 11.2649L11.3285 10.4428ZM13.44 18.0222C15.8615 20.5725 17.69 21.5742 19.0844 21.8015C19.8014 21.9176 20.3818 21.8238 20.8206 21.6505C21.0645 21.5557 21.2912 21.4214 21.4915 21.253L21.5472 21.1989L21.5695 21.1767L21.5806 21.1671L21.5854 21.1624L21.5869 21.1592C21.5869 21.1592 21.5901 21.1576 20.7252 20.3356C19.8603 19.5152 19.8618 19.512 19.8618 19.512L19.865 19.5104L19.8682 19.5056L19.8777 19.4977L19.9525 19.4309C19.9673 19.4224 19.9647 19.4229 19.9445 19.4325C19.9127 19.4452 19.7696 19.4961 19.4675 19.4468C18.8284 19.3419 17.4483 18.779 15.1699 16.3798L13.44 18.0222ZM11.0042 1.97154C9.39196 -0.30846 6.16752 -0.69482 4.21823 1.35941L5.94651 3.00184C6.77806 2.12736 8.24242 2.19573 9.05648 3.34845L11.0042 1.97154ZM26.0627 27.8243C25.6191 28.2917 25.1564 28.5429 24.7049 28.5875L24.9386 30.9597C26.1263 30.8436 27.0882 30.2108 27.7926 29.4683L26.0627 27.8243ZM12.6498 10.7847C14.1889 9.16452 14.297 6.63013 13.0091 4.80644L11.0614 6.18335C11.7324 7.13255 11.629 8.39816 10.9215 9.14226L12.6498 10.7847ZM27.7353 21.8222C29.0407 22.5742 29.2967 24.4218 28.322 25.4473L30.0503 27.0897C32.1252 24.9051 31.521 21.2498 28.9262 19.7552L27.7353 21.8222ZM22.3151 20.3944C22.9273 19.7489 23.8829 19.6042 24.6985 20.0732L25.8878 18.0063C24.1404 17.0014 21.9765 17.2892 20.5853 18.752L22.3151 20.3944ZM14.9409 25.9243C13.378 24.9417 11.7133 23.6125 10.0073 21.8174L8.27899 23.4599C10.1138 25.3917 11.9311 26.8496 13.6721 27.9435L14.9409 25.9243ZM24.7033 28.5875C23.3789 28.703 22.0447 28.6178 20.7459 28.3347L20.2577 30.6703C21.7945 31.0024 23.3726 31.0999 24.9386 30.9597L24.7033 28.5875Z" fill="#132C6C"/>
</svg>
