<svg width="40" height="43" viewBox="0 0 40 43" fill="none" xmlns="http://www.w3.org/2000/svg">
<g clip-path="url(#clip0_72_45)">
<path d="M30.9357 4.77784H13.2582C12.6721 4.77784 12.1101 5.02953 11.6957 5.47753C11.2813 5.92553 11.0485 6.53316 11.0485 7.16673H30.9357V35.8334H13.2582V24.1278H11.0485V35.8334C11.0485 36.467 11.2813 37.0746 11.6957 37.5226C12.1101 37.9706 12.6721 38.2223 13.2582 38.2223H30.9357C31.5217 38.2223 32.0838 37.9706 32.4982 37.5226C32.9126 37.0746 33.1454 36.467 33.1454 35.8334V7.16673C33.1454 6.53316 32.9126 5.92553 32.4982 5.47753C32.0838 5.02953 31.5217 4.77784 30.9357 4.77784Z" fill="white"/>
<path d="M16.7053 22.0495C16.5896 22.1566 16.4957 22.2884 16.4294 22.4365C16.3631 22.5847 16.3258 22.7461 16.3199 22.9106C16.3141 23.0751 16.3397 23.2392 16.3952 23.3924C16.4508 23.5457 16.535 23.6849 16.6427 23.8013C16.7504 23.9177 16.8792 24.0088 17.0209 24.0689C17.1627 24.1289 17.3144 24.1566 17.4666 24.1503C17.6188 24.1439 17.7681 24.1036 17.9051 24.032C18.0422 23.9603 18.1641 23.8587 18.2631 23.7337L24.6602 16.8178L18.2742 9.902C18.0628 9.70632 17.791 9.60407 17.5129 9.61568C17.2348 9.62729 16.9711 9.75191 16.7743 9.96464C16.5775 10.1774 16.4623 10.4625 16.4515 10.7631C16.4408 11.0637 16.5354 11.3577 16.7164 11.5862L20.4397 15.5278H4.41942C4.1264 15.5278 3.84538 15.6537 3.63818 15.8777C3.43098 16.1017 3.31458 16.4055 3.31458 16.7223C3.31458 17.0391 3.43098 17.3429 3.63818 17.5669C3.84538 17.7909 4.1264 17.9167 4.41942 17.9167H20.4397L16.7053 22.0495Z" fill="white"/>
</g>
<defs>
<clipPath id="clip0_72_45">
<rect width="39.7744" height="43" fill="white"/>
</clipPath>
</defs>
</svg>
