<svg width="87" height="87" viewBox="0 0 87 87" fill="none" xmlns="http://www.w3.org/2000/svg">
<g clip-path="url(#clip0_71_22)">
<path d="M7.47662 36.2783C8.24127 35.5986 9.03424 34.9473 9.85553 34.3242C10.6768 33.7012 11.4981 33.0923 12.3194 32.4976L44.9869 65.165C44.732 65.165 44.4913 65.1792 44.2647 65.2075C44.0381 65.2358 43.7833 65.25 43.5001 65.25C42.1973 65.25 40.9088 65.1934 39.6343 65.0801C38.3599 64.9668 37.0714 64.7827 35.7686 64.5278L7.47662 36.2783ZM87.0001 43.5C83.3751 47.5781 79.3394 51.2173 74.8931 54.4175C70.4468 57.6177 65.6465 60.1665 60.4922 62.064L75.3179 76.9321L71.4947 80.7554L54.5875 63.8481L51.9112 64.4004L16.9922 29.4814L19.0313 28.292L0.80719 10.0679L4.63043 6.24463L24.2139 25.8281C27.2725 24.5254 30.4161 23.52 33.6446 22.812C36.8731 22.104 40.1583 21.75 43.5001 21.75C47.7481 21.75 51.8829 22.3022 55.9044 23.4067C59.9258 24.5112 63.7774 26.0264 67.459 27.9521C71.1407 29.8779 74.6241 32.186 77.9092 34.8765C81.1944 37.5669 84.2247 40.4414 87.0001 43.5ZM43.5001 27.1875C41.3194 27.1875 39.2379 27.5981 37.2554 28.4194C35.273 29.2407 33.503 30.416 31.9454 31.9453L39.6343 39.6343C40.1441 39.1245 40.7247 38.7422 41.376 38.4873C42.0274 38.2324 42.7354 38.0908 43.5001 38.0625C44.2647 38.0625 44.9727 38.2041 45.6241 38.4873C46.2755 38.7705 46.856 39.1528 47.3658 39.6343C47.8755 40.1157 48.2579 40.6821 48.5128 41.3335C48.7676 41.9849 48.9092 42.707 48.9376 43.5C48.9376 44.2363 48.8101 44.9302 48.5552 45.5815C48.3004 46.2329 47.9039 46.8276 47.3658 47.3657L55.0547 55.0547C56.584 53.5254 57.7593 51.7695 58.5806 49.7871C59.4019 47.8047 59.8126 45.709 59.8126 43.5C59.8126 41.2344 59.3878 39.1104 58.5381 37.1279C57.6885 35.1455 56.5274 33.418 55.0547 31.9453C53.5821 30.4727 51.8546 29.3115 49.8721 28.4619C47.8897 27.6123 45.7657 27.1875 43.5001 27.1875ZM61.2994 55.9043C64.6978 54.4033 67.9122 52.605 70.9424 50.5093C73.9727 48.4136 76.8189 46.0771 79.481 43.5C76.8189 40.9229 73.9727 38.5864 70.9424 36.4907C67.9122 34.395 64.6978 32.5967 61.2994 31.0957C62.5738 32.9082 63.5367 34.8765 64.188 37.0005C64.8394 39.1245 65.1651 41.291 65.1651 43.5C65.1651 45.709 64.8394 47.8755 64.188 49.9995C63.5367 52.1235 62.5738 54.0918 61.2994 55.9043ZM6.10352e-05 43.5C1.10455 42.2822 2.25153 41.0928 3.44098 39.9316L25.1485 61.6392C20.2774 59.6851 15.7462 57.1504 11.5547 54.0352C7.36334 50.9199 3.51178 47.4082 6.10352e-05 43.5Z" fill="#132C6C"/>
</g>
<defs>
<clipPath id="clip0_71_22">
<rect width="87" height="87" fill="white"/>
</clipPath>
</defs>
</svg>
