<svg width="35" height="30" viewBox="0 0 35 30" fill="none" xmlns="http://www.w3.org/2000/svg">
<path d="M22.15 3.55155C26.9767 3.56705 29.5357 3.71895 31.1834 5.36505C33 7.1832 33 10.1065 33 15.95C33 21.7935 33 24.7183 31.1834 26.5334C29.3668 28.3484 26.445 28.35 20.6 28.35H14.4C8.55495 28.35 5.63165 28.35 3.8166 26.5334C2.00155 24.7168 2 21.7951 2 15.95C2 10.105 2 7.18165 3.8166 5.3666C5.46425 3.71895 8.0233 3.5655 12.85 3.55M17.5 5.1V2M11.3 13.625H23.7M11.3 19.05H19.825" stroke="#132C6C" stroke-width="2.325" stroke-linecap="round"/>
</svg>
