<svg width="34" height="35" viewBox="0 0 34 35" fill="none" xmlns="http://www.w3.org/2000/svg">
<g clip-path="url(#clip0_100_102)">
<path d="M17.1808 27.2677C16.0207 27.2677 15.0817 26.3272 15.0817 25.1685C15.0817 22.4565 16.9737 19.9781 20.552 18.0064C23.2179 16.537 24.5977 13.6248 24.0645 10.5881C23.5719 7.78506 21.2699 5.48302 18.4669 4.99043C16.4447 4.63498 14.4575 5.11918 12.8678 6.35346C11.3075 7.56675 10.3265 9.38178 10.1781 11.334C10.09 12.4885 9.0796 13.3561 7.92649 13.2679C6.77058 13.1798 5.90434 12.1722 5.9925 11.0163C6.2304 7.88581 7.79774 4.97784 10.2929 3.03965C12.8286 1.06788 15.9899 0.29401 19.1917 0.855173C23.7034 1.64724 27.4077 5.35148 28.1998 9.86318C29.0352 14.6198 26.7752 19.3708 22.5783 21.684C20.5128 22.8217 19.2799 24.1246 19.2799 25.1685C19.2799 26.3272 18.3409 27.2677 17.1808 27.2677ZM15.0817 32.1656C15.0817 33.3243 16.0221 34.2647 17.1808 34.2647C18.3395 34.2647 19.2799 33.3243 19.2799 32.1656C19.2799 31.0069 18.3395 30.0665 17.1808 30.0665C16.0221 30.0665 15.0817 31.0069 15.0817 32.1656Z" fill="white"/>
</g>
<defs>
<clipPath id="clip0_100_102">
<rect width="33.5859" height="33.5859" fill="white" transform="translate(0.388062 0.678833)"/>
</clipPath>
</defs>
</svg>
