<svg width="34" height="38" viewBox="0 0 34 38" fill="none" xmlns="http://www.w3.org/2000/svg">
<path d="M13.0151 24.8232C13.0151 25.2321 12.8689 25.6242 12.6087 25.9133C12.3485 26.2025 11.9956 26.3649 11.6276 26.3649C11.2596 26.3649 10.9067 26.2025 10.6465 25.9133C10.3863 25.6242 10.2401 25.2321 10.2401 24.8232C10.2401 24.4143 10.3863 24.0222 10.6465 23.7331C10.9067 23.444 11.2596 23.2816 11.6276 23.2816C11.9956 23.2816 12.3485 23.444 12.6087 23.7331C12.8689 24.0222 13.0151 24.4143 13.0151 24.8232ZM18.565 24.8232C18.565 25.2321 18.4188 25.6242 18.1586 25.9133C17.8984 26.2025 17.5455 26.3649 17.1775 26.3649C16.8095 26.3649 16.4566 26.2025 16.1964 25.9133C15.9362 25.6242 15.79 25.2321 15.79 24.8232C15.79 24.4143 15.9362 24.0222 16.1964 23.7331C16.4566 23.444 16.8095 23.2816 17.1775 23.2816C17.5455 23.2816 17.8984 23.444 18.1586 23.7331C18.4188 24.0222 18.565 24.4143 18.565 24.8232ZM22.7274 26.3649C23.0954 26.3649 23.4483 26.2025 23.7085 25.9133C23.9687 25.6242 24.1149 25.2321 24.1149 24.8232C24.1149 24.4143 23.9687 24.0222 23.7085 23.7331C23.4483 23.444 23.0954 23.2816 22.7274 23.2816C22.3595 23.2816 22.0065 23.444 21.7463 23.7331C21.4861 24.0222 21.34 24.4143 21.34 24.8232C21.34 25.2321 21.4861 25.6242 21.7463 25.9133C22.0065 26.2025 22.3595 26.3649 22.7274 26.3649Z" fill="#132C6C"/>
<path fill-rule="evenodd" clip-rule="evenodd" d="M7.81219 12.4899V14.4987C7.4977 14.5223 7.20077 14.5552 6.92143 14.5974C5.6727 14.7824 4.62099 15.1832 3.78572 16.1097C2.95046 17.0378 2.59249 18.2064 2.4246 19.5939C2.26227 20.9305 2.26227 22.631 2.26227 24.7384V24.908C2.26227 27.0155 2.26227 28.7159 2.4246 30.0526C2.5911 31.4401 2.95185 32.6087 3.78572 33.5367C4.62099 34.4648 5.6727 34.8626 6.92143 35.0507C8.12437 35.2295 9.65477 35.2295 11.5515 35.2295H22.8039C24.7006 35.2295 26.231 35.2295 27.4339 35.0507C28.6827 34.8626 29.7344 34.4648 30.5697 33.5367C31.4049 32.6087 31.7629 31.4401 31.9322 30.0526C32.0931 28.7159 32.0931 27.0155 32.0931 24.908V24.7384C32.0931 22.631 32.0931 20.9305 31.9322 19.5939C31.7629 18.2064 31.4049 17.0378 30.5697 16.1097C29.7344 15.1817 28.6827 14.7839 27.4339 14.5974C27.1381 14.5538 26.841 14.5209 26.5432 14.4987V12.4899C26.5432 9.73 25.5565 7.08313 23.8001 5.13158C22.0437 3.18003 19.6616 2.08366 17.1777 2.08366C14.6938 2.08366 12.3117 3.18003 10.5553 5.13158C8.79891 7.08313 7.81219 9.73 7.81219 12.4899ZM17.1777 4.39616C15.2458 4.39616 13.393 5.24889 12.0269 6.76676C10.6609 8.28463 9.89341 10.3433 9.89341 12.4899V14.4216C10.4114 14.4175 10.9641 14.416 11.5515 14.417H22.8039C23.3913 14.417 23.944 14.4185 24.462 14.4216V12.4899C24.462 8.01907 21.2014 4.39616 17.1777 4.39616ZM7.19893 16.8883C6.18051 17.0409 5.64217 17.3199 5.25784 17.7454C4.87351 18.1725 4.62376 18.7707 4.4864 19.9038C4.34626 21.0677 4.34349 22.6109 4.34349 24.8232C4.34349 27.0355 4.34626 28.5787 4.4864 29.7442C4.62376 30.8758 4.87489 31.474 5.25784 31.901C5.64217 32.3281 6.18051 32.6056 7.20031 32.7582C8.24647 32.9139 9.63673 32.917 11.6278 32.917H22.7276C24.7186 32.917 26.1075 32.9139 27.1564 32.7582C28.1749 32.6056 28.7132 32.3265 29.0975 31.901C29.4819 31.474 29.7316 30.8758 29.869 29.7427C30.0091 28.5787 30.0119 27.0355 30.0119 24.8232C30.0119 22.6109 30.0091 21.0662 29.869 19.9022C29.7316 18.7707 29.4805 18.1725 29.0975 17.7454C28.7132 17.3184 28.1749 17.0409 27.1551 16.8883C26.1075 16.7326 24.7186 16.7295 22.7276 16.7295H11.6278C9.63673 16.7295 8.24647 16.7326 7.19893 16.8883Z" fill="#132C6C"/>
</svg>
