<svg width="31" height="31" viewBox="0 0 31 31" fill="none" xmlns="http://www.w3.org/2000/svg">
<rect width="31" height="31" rx="5" fill="#132C6C"/>
<path d="M21.9583 19.375C21.5924 19.375 21.2858 19.251 21.0387 19.003C20.7915 18.755 20.6675 18.4484 20.6667 18.0833V12.9167C20.6667 12.5507 20.7907 12.2441 21.0387 11.997C21.2867 11.7499 21.5932 11.6259 21.9583 11.625H25.8333C26.1993 11.625 26.5063 11.749 26.7543 11.997C27.0023 12.245 27.1259 12.5516 27.125 12.9167V14.2083H25.1875V13.5625H22.6042V17.4375H25.1875V16.7917H27.125V18.0833C27.125 18.4493 27.001 18.7563 26.753 19.0043C26.505 19.2523 26.1984 19.3759 25.8333 19.375H21.9583ZM12.2708 19.375V11.625H17.4375C17.8035 11.625 18.1105 11.749 18.3585 11.997C18.6065 12.245 18.73 12.5516 18.7292 12.9167V14.2083C18.7292 14.5743 18.6052 14.8813 18.3572 15.1293C18.1092 15.3773 17.8026 15.5009 17.4375 15.5C17.8035 15.5 18.1105 15.624 18.3585 15.872C18.6065 16.12 18.73 16.4266 18.7292 16.7917V18.0833C18.7292 18.4493 18.6052 18.7563 18.3572 19.0043C18.1092 19.2523 17.8026 19.3759 17.4375 19.375H12.2708ZM14.2083 14.5312H16.7917V13.5625H14.2083V14.5312ZM14.2083 17.4375H16.7917V16.4687H14.2083V17.4375ZM3.875 19.375V12.9167C3.875 12.5507 3.999 12.2441 4.247 11.997C4.495 11.7499 4.80156 11.6259 5.16667 11.625H9.04167C9.40764 11.625 9.71462 11.749 9.96263 11.997C10.2106 12.245 10.3342 12.5516 10.3333 12.9167V19.375H8.39583V17.4375H5.8125V19.375H3.875ZM5.8125 15.5H8.39583V13.5625H5.8125V15.5Z" fill="white"/>
</svg>
